# xmcd CD database file generated by Grip 2.96
# 
# Track frame offsets:
#       150
#       17147
#       37862
#       58037
#       75227
#       92372
#       115642
#       129855
#       152835
#       171262
#       188870
#       205500
# 
# Disc length: 2979 seconds
# 
# Revision: 0
# Processed by: cddbd v1.4PL0 Copyright (c) Steve Scherf et al.
# Submitted via: Grip 2.96
# 
DISCID=820ba10c
DTITLE=Cyrano - Blue Train
DYEAR=1900
DGENRE=
TTITLE0=My Father's Song
TTITLE1=Avec Moi
TTITLE2=Blue Train
TTITLE3=On The Road
TTITLE4=Chico
TTITLE5=Slow Down Walking
TTITLE6=Encore Le Vin
TTITLE7=Henry the Thief
TTITLE8=Winter Song
TTITLE9=Vision of Two
TTITLE10=Don't Drink my Bourbon
TTITLE11=Watch me Bleed
EXTD=
EXTT0=
EXTT1=
EXTT2=
EXTT3=
EXTT4=
EXTT5=
EXTT6=
EXTT7=
EXTT8=
EXTT9=
EXTT10=
EXTT11=
PLAYORDER=
